<?xml version="1.0" encoding="iso-8859-1"?>
<!-- Generator: Adobe Illustrator 19.0.0, SVG Export Plug-In . SVG Version: 6.00 Build 0)  -->
<svg xmlns="http://www.w3.org/2000/svg" xmlns:xlink="http://www.w3.org/1999/xlink" version="1.1" id="Capa_1" x="0px" y="0px" viewBox="0 0 512 512" style="enable-background:new 0 0 512 512;" xml:space="preserve" width="512px" height="512px">
<g>
	<g>
		<path d="M299.359,266.002c-5.52,0-10,4.48-10,10c0,5.52,4.48,10,10,10c5.52,0,10-4.48,10-10    C309.359,270.482,304.878,266.002,299.359,266.002z" fill="#c3c3c3"/>
	</g>
</g>
<g>
	<g>
		<path d="M239.359,123.002c-5.52,0-10,4.48-10,10c0,5.52,4.48,10,10,10c5.52,0,10-4.48,10-10    C249.359,127.482,244.878,123.002,239.359,123.002z" fill="#c3c3c3"/>
	</g>
</g>
<g>
	<g>
		<path d="M411.646,178.251c-15.378-46.131-46.09-86.391-86.495-113.402c-9.031-29.961-31.399-53.916-59.541-63.301l-3.08-1.03    c-3.843-1.286-8.073-0.126-10.724,2.93c-2.652,3.057-3.201,7.411-1.39,11.03c3.857,7.706,6.463,16.506,7.643,25.681l-5.772,5.772    c-11.008,11.008-25.643,17.071-41.209,17.071h-11.72c-3.609,0-7.111,1.999-8.878,5.409c-0.021,0.04-0.046,0.076-0.066,0.116    l-7.062,14.114c-6.275,12.559-18.896,20.36-32.936,20.36c-4.406,0-8.801,0.511-13.056,1.517    c-8.673,2.046-13.957,5.405-16.584,6.598c-19.381,9.684-31.42,29.159-31.42,50.825c0,15.685,5.791,25.013,12.143,37.695    c6.706,13.215,20.078,21.425,34.897,21.425c6.105,0,11.983-1.392,17.477-4.138c15.345-7.682,34.263-8.317,50.859-0.054    l0.034,0.018c0.076,0.04,0.151,0.08,0.229,0.118c5.408,2.704,11.27,4.506,17.265,5.379c-11.195,7.753-22.887,13.305-34.44,16.195    c-50.817,12.705-83.713,66.415-64.521,123.862l6.57,19.72c1.36,4.084,5.183,6.839,9.487,6.839h10v23h-10    c-16.575,0-30,13.424-30,30c0,6.169,1.874,11.908,5.079,16.681C99.461,467.328,89.356,483.5,89.356,502c0,5.523,4.478,10,10,10    h280c5.522,0,10-4.477,10-10c0-18.401-9.914-34.583-25.049-43.333c3.284-4.893,5.049-10.645,5.049-16.667    c0-16.542-13.458-30-30-30h-10v-23h10.003v0.002c4.304,0,8.126-2.754,9.486-6.837l4.191-12.57    c2.502-7.507,4.764-15.412,6.757-23.592h39.565c4.767,0,8.87-3.364,9.806-8.038l9.341-46.683    C425.844,254.545,423.344,213.346,411.646,178.251z M367.656,492.002H111.073c4.127-11.641,15.249-20,28.286-20h200    C352.648,472.002,363.628,480.587,367.656,492.002z M339.359,432.002c5.513,0,10,4.485,10,10c0,5.521-4.478,10-10,10h-200    c-5.514,0-10-4.486-10-10c0-5.521,4.478-10,10-10H339.359z M169.359,412.002v-23c24.939,0,107.161,0,140,0v23H169.359z     M342.672,330.961c-1.074,1.835-1.542,3.939-1.317,6.09c-4.031,17.633-8.06,28.284-9.203,31.949h-12.793h-47.013    c15.475-10.639,28.137-29.405,33.95-50.424c1.473-5.323-1.649-10.832-6.972-12.304c-5.326-1.472-10.833,1.649-12.304,6.972    c-4.593,16.603-14.744,31.788-26.488,39.625L236.332,369c-13.237,0-78.514,0-89.764,0l-4.295-12.887    c-15.364-45.99,10.526-88.161,50.402-98.13c24.835-6.213,49.858-22.344,70.578-45.465c7.593-5.371,13.807-12.567,17.989-20.931    l7.06-14.11c2.471-4.939,0.471-10.946-4.469-13.417c-4.939-2.471-10.946-0.47-13.418,4.468l-7.061,14.112    c-9.04,18.076-31.053,25.582-49.306,16.532l-0.03-0.016c-0.074-0.04-0.149-0.078-0.224-0.116    c-22.078-11.051-47.68-10.609-68.868-0.002c-2.687,1.343-5.556,2.024-8.528,2.024c-7.246,0-13.784-4.014-17.039-10.429    l-0.182-0.363l23.343-7.781c5.239-1.747,8.071-7.41,6.325-12.649c-1.747-5.24-7.408-8.072-12.649-6.325l-25.432,8.477    c-4.745-16.717,2.718-34.872,18.972-42.994c2.86-1.319,6.306-3.619,12.224-5.015c2.754-0.651,5.6-0.981,8.458-0.981    c21.666,0,41.142-12.04,50.824-31.416l4.295-8.584h5.541c16.834,0,32.853-5.287,46.175-15.062    c-1.383,7.297-3.68,14.274-6.838,20.587c-2.471,4.939-0.471,10.946,4.469,13.417c4.939,2.471,10.946,0.471,13.418-4.468    c9.995-19.978,13.117-44.913,8.174-68.286c15.031,10.463,26.267,26.969,30.81,46.203c1.376,5.845,2.073,11.769,2.073,17.608    c0,1.075,0.173,2.143,0.514,3.163l24.189,72.569c9.864,29.593,15.297,64.137,15.297,97.268    C349.359,286.905,347.2,308.912,342.672,330.961z M398.893,287.359l-7.731,38.642h-27.179c0.45-2.531,0.883-5.068,1.278-7.609    c2.72-17.549,4.099-35.176,4.099-52.391c0-35.224-5.797-72.014-16.323-103.592l-23.01-69.032    c28.84,23.81,50.771,55.578,62.645,91.197C403.303,216.468,405.57,253.933,398.893,287.359z" fill="#c3c3c3"/>
	</g>
</g>
<g>
</g>
<g>
</g>
<g>
</g>
<g>
</g>
<g>
</g>
<g>
</g>
<g>
</g>
<g>
</g>
<g>
</g>
<g>
</g>
<g>
</g>
<g>
</g>
<g>
</g>
<g>
</g>
<g>
</g>
</svg>
